<svg xmlns="http://www.w3.org/2000/svg" viewBox="0 0 998 907.65"><defs><style>.cls-1{isolation:isolate;}.cls-2{fill:#3feada;}.cls-3{fill:#fee741;mix-blend-mode:overlay;}.cls-4{fill:none;stroke:#000;stroke-miterlimit:10;stroke-width:31.94px;}</style></defs><g class="cls-1"><g id="Layer_1" data-name="Layer 1"><path class="cls-2" d="M865.64,516.05l-207-.35-209.06-.38c31.34,95.41,62.61,190.82,105.06,252.09,28.56,41.27,62.16,67.08,104.19,67.05,103.21-.1,155.34-155.72,206.83-313.39.55-1.66,1.09-3.35,1.63-5ZM31.94,197.62V513.85c-.09.26-.16.51-.25.77h.25L239.6,515c-31.14-94.84-62.32-189.45-104.51-250.37C106.75,223.72,73.47,198,31.94,197.62Z" transform="translate(-1 -46.17)"/><path class="cls-3" d="M867.27,516.05h-1.63v5C866.19,519.41,866.73,517.72,867.27,516.05Zm-208.65-.35,207,.35V197C762.28,198.58,710.4,357,658.62,515.7ZM240.21,195.93c-42.55,0-76.41,26.51-105.12,68.67C93.5,325.68,62.7,419.65,31.94,513.85c-.09.26-.16.51-.25.77h.25L239.6,515c52.58,160.29,105,321.24,209.9,321.15,42.54,0,76.4-26.55,105.12-68.71,42-61.62,73-156.71,104-251.71l-209.06-.38C397.17,355.61,344.76,195.83,240.21,195.93Z" transform="translate(-1 -46.17)"/><path class="cls-4" d="M30.89,197.59c.35,0,.7,0,1.05,0,41.53.38,74.81,26.1,103.15,67C177.28,325.52,208.46,420.13,239.6,515c52.58,160.29,105,321.24,209.9,321.15,42.54,0,76.4-26.55,105.12-68.71,42-61.62,73-156.71,104-251.71C710.4,357,762.28,198.58,865.64,197c.48,0,1,0,1.5,0" transform="translate(-1 -46.17)"/><path class="cls-4" d="M31.4,515.51c.1-.29.19-.61.29-.89s.16-.51.25-.77C62.7,419.65,93.5,325.68,135.09,264.6c28.71-42.16,62.57-68.64,105.12-68.67,104.55-.1,157,159.68,209.35,319.39,31.34,95.41,62.61,190.82,105.06,252.09,28.56,41.27,62.16,67.08,104.19,67.05,103.21-.1,155.34-155.72,206.83-313.39.55-1.66,1.09-3.35,1.63-5l.19-.57" transform="translate(-1 -46.17)"/><polyline class="cls-4" points="30.94 907.65 30.94 468.44 30.94 467.68 30.94 151.45 30.94 29.23"/><polyline class="cls-4" points="29.89 468.44 30.69 468.44 30.94 468.44 238.6 468.79 448.56 469.15 657.62 469.53 864.64 469.88 866.27 469.88 963.66 470.04"/><polygon points="30.14 0 0 52.2 60.28 52.2 30.14 0"/><polygon points="945.8 500.32 998 470.18 945.8 440.04 945.8 500.32"/></g></g></svg>